<svg height="327pt" viewBox="0 0 327 327.688" width="327pt" xmlns="http://www.w3.org/2000/svg" xmlns:xlink="http://www.w3.org/1999/xlink"><linearGradient id="a"><stop offset="0" stop-color="#00efd1"/><stop offset="1" stop-color="#00acea"/></linearGradient><linearGradient id="b" gradientUnits="userSpaceOnUse" x1="164.028" x2="164.028" xlink:href="#a" y1="-78.489" y2="404.708"/><linearGradient id="c" gradientUnits="userSpaceOnUse" x1="163.528" x2="163.528" xlink:href="#a" y1="-78.489" y2="404.708"/><path d="m164.027344 0c-90.253906 0-163.683594 73.582031-163.683594 163.847656s73.421875 163.839844 163.683594 163.839844h.011718c90.253907 0 163.683594-73.582031 163.683594-163.847656s-73.433594-163.839844-163.695312-163.839844zm.003906 307.6875h-.003906c-79.226563 0-143.683594-64.613281-143.683594-143.847656 0-79.238282 64.457031-143.761719 143.695312-143.761719 79.238282 0 143.675782 64.570313 143.675782 143.808594s-64.453125 143.800781-143.683594 143.800781zm0 0" fill="url(#b)"/><g fill="url(#c)"><path d="m235.027344 153.6875h-143c-5.523438 0-10 4.476562-10 10s4.476562 10 10 10h143c5.523437 0 10-4.476562 10-10s-4.476563-10-10-10zm0 0"/><path d="m235.027344 107.6875h-143c-5.523438 0-10 4.476562-10 10s4.476562 10 10 10h143c5.523437 0 10-4.476562 10-10s-4.476563-10-10-10zm0 0"/><path d="m235.027344 199.6875h-143c-5.523438 0-10 4.476562-10 10s4.476562 10 10 10h143c5.523437 0 10-4.476562 10-10s-4.476563-10-10-10zm0 0"/></g></svg>
