<svg fill="#fff" xmlns="http://www.w3.org/2000/svg" viewBox="0 0 32 32" width="40px" height="40px">
<g>
<animate attributeType="CSS" attributeName="opacity" 
           from="0" to="1" dur="6s" fill="remove"/>
<path d="M 9 6 C 5.6983746 6 3 8.6983746 3 12 L 3 20 C 3 23.301625 5.6983746 26 9 26 C 12.301625 26 15 23.301625 15 20 L 15 12 C 15 8.6983746 12.301625 6 9 6 z M 17 6 L 17 26 L 19 26 L 19 19.320312 L 21.154297 16.283203 L 26.722656 26 L 29 26 L 22.429688 14.486328 L 28.451172 6 L 26 6 L 19 15.863281 L 19 6 L 17 6 z M 9 8 C 11.220375 8 13 9.7796254 13 12 L 13 20 C 13 22.220375 11.220375 24 9 24 C 6.7796254 24 5 22.220375 5 20 L 5 12 C 5 9.7796254 6.7796254 8 9 8 z"/>
</g>
</svg>