<svg height="512pt" viewBox="-21 0 512 512" width="25px" xmlns="http://www.w3.org/2000/svg">

     <path d="m466.589844 3.5c-2.027344-2.21875-4.90625-3.5-7.914063-3.5h-448c-3.007812 0-5.886719 1.28125-7.914062 3.5-2.003907 2.261719-3.007813 5.226562-2.7109378 8.234375l42.6679688 426.664063c.425781 4.183593 3.242188 7.722656 7.230469 9.066406l192 64c1.109375.34375 2.261719.535156 3.394531.535156 1.277344 0 2.539062-.234375 3.753906-.683594l170.667969-64c3.796875-1.40625 6.460937-4.882812 6.867187-8.917968l42.667969-426.664063c.296875-3.007813-.703125-5.972656-2.710937-8.234375zm0 0" fill="#2196f3"/>

     <path d="m245.34375 512c-1.132812 0-2.285156-.171875-3.371094-.554688l-192-64c-3.988281-1.324218-6.828125-4.886718-7.234375-9.046874l-42.6640622-426.664063c-.3203128-3.007813.6835932-5.996094 2.6875002-8.214844 2.027343-2.238281 4.90625-3.519531 7.914062-3.519531h448c3.007813 0 5.886719 1.28125 7.914063 3.519531 2.027344 2.21875 3.007812 5.226563 2.710937 8.214844l-42.667969 426.664063c-.40625 4.035156-3.070312 7.511718-6.867187 8.917968l-170.667969 64c-1.214844.449219-2.476562.683594-3.753906.683594zm-182.082031-82.601562 181.867187 60.628906 160.917969-60.351563 40.832031-408.34375h-424.40625zm0 0"/>

     <path d="m245.34375 405.332031c-1.132812 0-2.285156-.167969-3.371094-.554687l-96-32c-3.628906-1.214844-6.335937-4.265625-7.082031-8.019532l-10.667969-53.332031c-1.152344-5.78125 2.601563-11.394531 8.363282-12.546875 5.824218-1.234375 11.414062 2.582032 12.542968 8.363282l9.449219 47.253906 86.550781 28.863281 76.074219-28.523437 39.46875-226.835938h-243.328125c-5.890625 0-10.667969-4.777344-10.667969-10.667969 0-5.886719 4.777344-10.664062 10.667969-10.664062h256c3.136719 0 6.144531 1.386719 8.167969 3.796875 2.027343 2.410156 2.882812 5.589844 2.347656 8.683594l-42.667969 245.332031c-.636718 3.734375-3.21875 6.828125-6.761718 8.171875l-85.332032 32c-1.214844.445312-2.476562.679687-3.753906.679687zm0 0"/>

     <path d="m352.007812 234.667969h-224c-5.886718 0-10.664062-4.78125-10.664062-10.667969s4.777344-10.667969 10.664062-10.667969h224c5.890626 0 10.667969 4.78125 10.667969 10.667969s-4.777343 10.667969-10.667969 10.667969zm0 0"/>
</svg>